<svg width="30" height="30" viewBox="0 0 30 30" fill="none" xmlns="http://www.w3.org/2000/svg">
<path d="M27.5593 23.6285C27.4603 23.448 27.3146 23.2975 27.1375 23.1926L25.8684 22.4309C25.373 22.133 24.9632 21.7121 24.6787 21.209C24.3942 20.7059 24.2447 20.1377 24.2447 19.5598V12.6949C24.2435 10.7036 23.5975 8.76615 22.4031 7.1727C21.2088 5.57921 19.5305 4.4154 17.6196 3.85547C17.5369 3.83194 17.4641 3.7823 17.412 3.71396C17.36 3.64563 17.3314 3.56228 17.3307 3.47637C17.3307 2.86518 17.0879 2.27902 16.6557 1.84685C16.2235 1.41467 15.6373 1.17188 15.0262 1.17188C14.415 1.17188 13.8288 1.41467 13.3966 1.84685C12.9645 2.27902 12.7216 2.86518 12.7216 3.47637C12.7208 3.56225 12.6922 3.64556 12.6402 3.71387C12.5881 3.78219 12.5154 3.83186 12.4328 3.85547C10.5218 4.4154 8.8435 5.57921 7.64918 7.1727C6.45486 8.76615 5.80879 10.7036 5.8076 12.6949V19.5586C5.80766 20.1366 5.65817 20.7047 5.37366 21.2078C5.08915 21.7109 4.6793 22.1319 4.18398 22.4297L2.91483 23.1914C2.69571 23.3222 2.52528 23.5211 2.42947 23.7576C2.33365 23.9942 2.31768 24.2555 2.38399 24.502C2.4503 24.7485 2.59525 24.9666 2.79682 25.1231C2.9984 25.2796 3.24557 25.3661 3.50077 25.3693H26.548C26.75 25.3645 26.9474 25.308 27.1214 25.205C27.2953 25.102 27.4397 24.9561 27.5411 24.7813C27.6424 24.6064 27.6972 24.4085 27.7 24.2065C27.703 24.0045 27.6539 23.805 27.5576 23.6273L27.5593 23.6285Z" fill="white"/>
<path d="M13.034 28.1906C13.4691 28.4984 13.9696 28.7011 14.4962 28.7827C15.0229 28.8644 15.5613 28.8227 16.0691 28.6611C16.577 28.4995 17.0404 28.2223 17.4229 27.8513C17.8056 27.4804 18.0969 27.0257 18.274 26.523H11.7766C12.0138 27.1952 12.453 27.7777 13.034 28.1906Z" fill="white"/>
<!-- <circle cx="24" cy="8" r="4" fill="url(#paint0_linear_29_158)"/> -->
<defs>
<linearGradient id="paint0_linear_29_158" x1="20" y1="4" x2="28" y2="12" gradientUnits="userSpaceOnUse">
<stop stop-color="#F80C67"/>
<stop offset="1" stop-color="#ED1C24"/>
</linearGradient>
</defs>
</svg>
