<svg width="34" height="30" viewBox="0 0 34 30" fill="none" xmlns="http://www.w3.org/2000/svg">
<g clip-path="url(#clip0_0_1)">
<path d="M7.5 1.25C7.5 0.56 6.94 0 6.25 0C5.56 0 5 0.56 5 1.25V2.5H7.5V1.25ZM25 1.25C25 0.56 24.44 0 23.75 0C23.06 0 22.5 0.56 22.5 1.25V2.5H25V1.25ZM0 27.5C0 28.8813 1.11875 30 2.5 30H27.5C28.8813 30 30 28.8813 30 27.5V10H0V27.5ZM20 13.75C20 13.06 20.56 12.5 21.25 12.5H23.75C24.44 12.5 25 13.06 25 13.75V16.25C25 16.94 24.44 17.5 23.75 17.5H21.25C20.56 17.5 20 16.94 20 16.25V13.75ZM20 21.25C20 20.56 20.56 20 21.25 20H23.75C24.44 20 25 20.56 25 21.25V23.75C25 24.44 24.44 25 23.75 25H21.25C20.56 25 20 24.44 20 23.75V21.25ZM12.5 13.75C12.5 13.06 13.06 12.5 13.75 12.5H16.25C16.94 12.5 17.5 13.06 17.5 13.75V16.25C17.5 16.94 16.94 17.5 16.25 17.5H13.75C13.06 17.5 12.5 16.94 12.5 16.25V13.75ZM12.5 21.25C12.5 20.56 13.06 20 13.75 20H16.25C16.94 20 17.5 20.56 17.5 21.25V23.75C17.5 24.44 16.94 25 16.25 25H13.75C13.06 25 12.5 24.44 12.5 23.75V21.25ZM5 21.25C5 20.56 5.56 20 6.25 20H8.75C9.44 20 10 20.56 10 21.25V23.75C10 24.44 9.44 25 8.75 25H6.25C5.56 25 5 24.44 5 23.75V21.25ZM27.5 2.5H25V3.75C25 4.44 24.44 5 23.75 5C23.06 5 22.5 4.44 22.5 3.75V2.5H7.5V3.75C7.5 4.44 6.94 5 6.25 5C5.56 5 5 4.44 5 3.75V2.5H2.5C1.11875 2.5 0 3.61875 0 5V7.5H30V5C30 3.61875 28.8813 2.5 27.5 2.5Z" fill="white"/>
</g>
<!-- <circle cx="30" cy="8" r="4" fill="url(#paint0_linear_0_1)"/> -->
<defs>
<linearGradient id="paint0_linear_0_1" x1="26" y1="4" x2="34" y2="12" gradientUnits="userSpaceOnUse">
<stop stop-color="#F80C67"/>
<stop offset="1" stop-color="#ED1C24"/>
</linearGradient>
<clipPath id="clip0_0_1">
<rect width="30" height="30" fill="white"/>
</clipPath>
</defs>
</svg>
