<svg width="121" height="46" viewBox="0 0 121 46" fill="none" xmlns="http://www.w3.org/2000/svg">
<path d="M59.3578 5.70327L63.6418 19.3642H63.8062L68.0988 5.70327H72.253L66.1429 23.6837H61.3137L55.195 5.70327H59.3578Z" fill="white"/>
<path d="M78.1337 5.70327V23.6837H74.3863V5.70327H78.1337Z" fill="white"/>
<path d="M84.419 5.70327L88.703 19.3642H88.8674L93.16 5.70327H97.3142L91.2041 23.6837H86.3749L80.2562 5.70327H84.419Z" fill="white"/>
<path d="M100.146 23.6837H96.1307L102.249 5.70327H107.079L113.189 23.6837H109.173L104.733 9.81208H104.595L100.146 23.6837ZM99.8954 16.6162H109.381V19.5837H99.8954V16.6162Z" fill="white"/>
<path d="M53.1963 28.4234V46H49.6263V28.4234H53.1963ZM60.0983 35.9321V38.7569H52.2205V35.9321H60.0983ZM60.9312 28.4234V31.2603H52.2205V28.4234H60.9312Z" fill="url(#paint0_linear_1_81)"/>
<path d="M74.1401 43.1752V46H65.4175V43.1752H74.1401ZM66.5718 28.4234V46H63.0018V28.4234H66.5718Z" fill="url(#paint1_linear_1_81)"/>
<path d="M83.4697 31.4293L78.7573 46H74.9612L81.3991 28.4234H83.8148L83.4697 31.4293ZM87.3847 46L82.6605 31.4293L82.2797 28.4234H84.7192L91.1927 46H87.3847ZM87.1705 39.4571V42.2939H78.0195V39.4571H87.1705Z" fill="url(#paint2_linear_1_81)"/>
<path d="M92.7992 28.4234H99.2608C100.586 28.4234 101.724 28.6246 102.676 29.027C103.636 29.4294 104.374 30.0249 104.89 30.8136C105.405 31.6023 105.663 32.5721 105.663 33.7229C105.663 34.6646 105.504 35.4734 105.187 36.1494C104.878 36.8174 104.437 37.3767 103.866 37.8274C103.303 38.27 102.64 38.6241 101.879 38.8897L100.748 39.4933H95.1316L95.1078 36.6685H99.2846C99.9114 36.6685 100.431 36.5558 100.844 36.3305C101.256 36.1051 101.565 35.7913 101.772 35.3889C101.986 34.9865 102.093 34.5197 102.093 33.9885C102.093 33.4252 101.99 32.9383 101.784 32.5278C101.577 32.1174 101.264 31.8035 100.844 31.5862C100.423 31.3689 99.8955 31.2603 99.2608 31.2603H96.3692V46H92.7992V28.4234ZM102.486 46L98.535 38.1654L102.307 38.1412L106.306 45.831V46H102.486Z" fill="url(#paint3_linear_1_81)"/>
<path d="M120.038 43.1752V46H110.816V43.1752H120.038ZM111.982 28.4234V46H108.412V28.4234H111.982ZM118.836 35.582V38.3344H110.816V35.582H118.836ZM120.026 28.4234V31.2603H110.816V28.4234H120.026Z" fill="url(#paint4_linear_1_81)"/>
<path d="M61.9042 0.762984C62.0784 0.725136 62.0797 0.472501 61.9038 0.443493C39.3401 -3.27789 20.1603 17.0049 25.0967 39.3675L26.4552 45.522C26.4998 45.7241 26.7925 45.7086 26.8155 45.5029L27.594 38.5633C29.6791 19.9745 43.6516 4.72862 61.9042 0.762984Z" fill="url(#paint5_linear_1_81)"/>
<path d="M54.3425 27.0273C54.4286 27.0423 54.4759 26.9279 54.4014 26.882C44.8469 20.9994 32.3805 26.6341 30.464 37.7017L29.9169 40.8613C29.8995 40.9619 30.036 41.0096 30.0849 40.92L31.7622 37.842C36.1518 29.7869 45.3158 25.4518 54.3425 27.0273Z" fill="url(#paint6_linear_1_81)"/>
<path d="M0.0812476 13.3006C-0.0176901 13.2878 -0.0304698 13.147 0.0661941 13.1223C12.4688 9.95161 24.1503 20.3213 22.4965 33.0336L22.0244 36.6628C22.0093 36.7783 21.8444 36.784 21.8214 36.6698L21.0342 32.7463C18.9739 22.4782 10.4521 14.6452 0.0812476 13.3006Z" fill="url(#paint7_linear_1_81)"/>
<path d="M44.1119 37.0019C44.1601 37.0063 44.1812 36.9411 44.1381 36.9191C38.6046 34.0929 31.9701 37.7536 31.3988 43.9482L31.2358 45.7166C31.2306 45.773 31.3081 45.7933 31.3311 45.7416L32.1217 43.9684C34.1908 39.3278 39.0593 36.5303 44.1119 37.0019Z" fill="url(#paint8_linear_1_81)"/>
<path d="M9.82583 35.7372C9.77179 35.7418 9.74882 35.6685 9.79733 35.6442C16.0216 32.5298 23.4193 36.6917 24.002 43.6357L24.1684 45.6181C24.1737 45.6813 24.0867 45.7033 24.0614 45.6452L23.1921 43.6517C20.9173 38.4344 15.4898 35.2558 9.82583 35.7372Z" fill="url(#paint9_linear_1_81)"/>
<defs>
<linearGradient id="paint0_linear_1_81" x1="-5.12735" y1="28.5311" x2="95.5551" y2="101.675" gradientUnits="userSpaceOnUse">
<stop stop-color="#7538F9"/>
<stop offset="1" stop-color="#F80C5B"/>
</linearGradient>
<linearGradient id="paint1_linear_1_81" x1="-5.12735" y1="28.5311" x2="95.5551" y2="101.675" gradientUnits="userSpaceOnUse">
<stop stop-color="#7538F9"/>
<stop offset="1" stop-color="#F80C5B"/>
</linearGradient>
<linearGradient id="paint2_linear_1_81" x1="-5.12735" y1="28.5311" x2="95.5551" y2="101.675" gradientUnits="userSpaceOnUse">
<stop stop-color="#7538F9"/>
<stop offset="1" stop-color="#F80C5B"/>
</linearGradient>
<linearGradient id="paint3_linear_1_81" x1="-5.12735" y1="28.5311" x2="95.5551" y2="101.675" gradientUnits="userSpaceOnUse">
<stop stop-color="#7538F9"/>
<stop offset="1" stop-color="#F80C5B"/>
</linearGradient>
<linearGradient id="paint4_linear_1_81" x1="-5.12735" y1="28.5311" x2="95.5551" y2="101.675" gradientUnits="userSpaceOnUse">
<stop stop-color="#7538F9"/>
<stop offset="1" stop-color="#F80C5B"/>
</linearGradient>
<linearGradient id="paint5_linear_1_81" x1="16.0239" y1="32.1015" x2="22.422" y2="46.7307" gradientUnits="userSpaceOnUse">
<stop stop-color="#7538F9"/>
<stop offset="1" stop-color="#452193"/>
</linearGradient>
<linearGradient id="paint6_linear_1_81" x1="16.0239" y1="32.1015" x2="22.422" y2="46.7307" gradientUnits="userSpaceOnUse">
<stop stop-color="#7538F9"/>
<stop offset="1" stop-color="#452193"/>
</linearGradient>
<linearGradient id="paint7_linear_1_81" x1="16.0239" y1="32.1015" x2="22.422" y2="46.7307" gradientUnits="userSpaceOnUse">
<stop stop-color="#7538F9"/>
<stop offset="1" stop-color="#452193"/>
</linearGradient>
<linearGradient id="paint8_linear_1_81" x1="16.0239" y1="32.1015" x2="22.422" y2="46.7307" gradientUnits="userSpaceOnUse">
<stop stop-color="#7538F9"/>
<stop offset="1" stop-color="#452193"/>
</linearGradient>
<linearGradient id="paint9_linear_1_81" x1="16.0239" y1="32.1015" x2="22.422" y2="46.7307" gradientUnits="userSpaceOnUse">
<stop stop-color="#7538F9"/>
<stop offset="1" stop-color="#452193"/>
</linearGradient>
</defs>
</svg>
