<svg width="21" height="22" viewBox="0 0 21 22" fill="none" xmlns="http://www.w3.org/2000/svg">
<path d="M18.7089 3.28449V11.5035C18.7089 11.614 18.6194 11.7035 18.5089 11.7035H17.038C16.9276 11.7035 16.838 11.614 16.838 11.5035V4.41994C16.838 4.30948 16.7485 4.21994 16.638 4.21994H2.07089C1.96044 4.21994 1.87089 4.30948 1.87089 4.41994V15.2453C1.87089 15.3558 1.96044 15.4453 2.07089 15.4453H9.15447C9.26493 15.4453 9.35447 15.5348 9.35447 15.6453V17.1162C9.35447 17.2267 9.26493 17.3162 9.15447 17.3162H0.935447C0.687351 17.3162 0.449416 17.2176 0.273986 17.0422C0.0985557 16.8668 0 16.6288 0 16.3807V3.28449C0 3.0364 0.0985557 2.79846 0.273986 2.62303C0.449416 2.4476 0.687351 2.34905 0.935447 2.34905H4.47723C4.58769 2.34905 4.67723 2.2595 4.67723 2.14905V0.678153C4.67723 0.567696 4.76678 0.478153 4.87723 0.478153H6.34813C6.45858 0.478153 6.54813 0.567696 6.54813 0.678153V2.14905C6.54813 2.2595 6.63767 2.34905 6.74813 2.34905H11.9608C12.0713 2.34905 12.1608 2.2595 12.1608 2.14905V0.678153C12.1608 0.567696 12.2504 0.478153 12.3608 0.478153H13.8317C13.9422 0.478153 14.0317 0.567696 14.0317 0.678153V2.14905C14.0317 2.2595 14.1212 2.34905 14.2317 2.34905H17.7735C18.0216 2.34905 18.2595 2.4476 18.4349 2.62303C18.6104 2.79846 18.7089 3.0364 18.7089 3.28449ZM11.3676 10.954C11.3605 10.8954 11.3795 10.8367 11.4197 10.7935L12.8508 9.25462C12.9577 9.13966 12.8966 8.95198 12.7425 8.92208L10.6808 8.52205C10.6228 8.51079 10.5727 8.47442 10.544 8.42272L9.52937 6.59327C9.4532 6.45595 9.25573 6.45595 9.17957 6.59327L8.16492 8.42272C8.13624 8.47442 8.08616 8.51079 8.02811 8.52205L5.96646 8.92208C5.81235 8.95198 5.75119 9.13966 5.8581 9.25462L7.28926 10.7935C7.32943 10.8367 7.34848 10.8954 7.34133 10.954L7.08763 13.0297C7.06858 13.1855 7.22826 13.3015 7.37057 13.2352L9.27005 12.3509C9.32357 12.3259 9.38536 12.3259 9.43888 12.3509L11.3384 13.2352C11.4807 13.3015 11.6404 13.1855 11.6213 13.0297L11.3676 10.954ZM18.7089 16.3807H17.9735C17.863 16.3807 17.7735 16.2912 17.7735 16.1807V13.7744C17.7735 13.664 17.6839 13.5744 17.5735 13.5744H16.1026C15.9921 13.5744 15.9026 13.664 15.9026 13.7744V16.1807C15.9026 16.2912 15.8131 16.3807 15.7026 16.3807H13.2963C13.1858 16.3807 13.0963 16.4703 13.0963 16.5807V18.0516C13.0963 18.1621 13.1858 18.2516 13.2963 18.2516H15.7026C15.8131 18.2516 15.9026 18.3412 15.9026 18.4516V20.858C15.9026 20.9684 15.9921 21.058 16.1026 21.058H17.5735C17.6839 21.058 17.7735 20.9684 17.7735 20.858V18.4516C17.7735 18.3412 17.863 18.2516 17.9735 18.2516H20.3798C20.4903 18.2516 20.5798 18.1621 20.5798 18.0516V16.5807C20.5798 16.4703 20.4903 16.3807 20.3798 16.3807H18.7089Z" fill="white"/>
</svg>
