<svg width="10" height="10" viewBox="0 0 10 10" fill="none" xmlns="http://www.w3.org/2000/svg">
<g clip-path="url(#clip0_48_53)">
<path d="M5.41667 10H4.58333C4.23875 10 3.95833 9.71958 3.95833 9.375V8.59917C3.69167 8.52208 3.435 8.41563 3.19146 8.28104L2.64271 8.83C2.40646 9.06625 1.995 9.06583 1.75875 8.83L1.16938 8.24083C1.05125 8.12292 0.98625 7.96583 0.98625 7.79896C0.98625 7.63208 1.05125 7.475 1.16938 7.35708L1.71833 6.80792C1.58396 6.565 1.4775 6.30833 1.40063 6.04146H0.625C0.280417 6.04146 0 5.76104 0 5.41646V4.58313C0 4.41604 0.065 4.25917 0.182917 4.14125C0.301042 4.02333 0.457917 3.95813 0.625 3.95813H1.40083C1.47792 3.69188 1.58417 3.435 1.71875 3.19167L1.17 2.64271C0.92625 2.39896 0.92625 2.00271 1.17 1.75896L1.75917 1.16958C1.99521 0.93375 2.40688 0.933333 2.64313 1.16958L3.19208 1.71854C3.43542 1.58417 3.69208 1.47771 3.95833 1.40083V0.625C3.95833 0.280417 4.23875 0 4.58333 0H5.41667C5.76125 0 6.04167 0.280417 6.04167 0.625V1.40083C6.30833 1.47792 6.565 1.58438 6.80792 1.71854L7.35687 1.16958C7.59312 0.93375 8.00458 0.933333 8.24083 1.16958L8.83021 1.75875C8.94833 1.87667 9.01333 2.03375 9.01333 2.20062C9.01333 2.3675 8.94833 2.52458 8.83021 2.6425L8.28146 3.19146C8.41604 3.43479 8.5225 3.69146 8.59938 3.95813H9.375C9.71958 3.95813 10 4.23854 10 4.58313V5.41646C10 5.58354 9.935 5.74042 9.81708 5.85833C9.69917 5.97625 9.54208 6.04146 9.375 6.04146H8.59917C8.52208 6.30813 8.41562 6.565 8.28125 6.80813L8.83 7.35708C9.07375 7.60083 9.07375 7.99708 8.83 8.24083L8.24083 8.83021C8.00458 9.06625 7.59312 9.06625 7.35687 8.83021L6.80833 8.28125C6.565 8.41583 6.30813 8.52208 6.04187 8.59917V9.375C6.04167 9.71958 5.76146 10 5.41667 10ZM3.15771 7.81208C3.195 7.81208 3.23271 7.82208 3.26625 7.8425C3.56125 8.02292 3.88063 8.15542 4.21563 8.23646C4.30917 8.25917 4.375 8.34271 4.375 8.43896V9.375C4.375 9.49 4.46854 9.58333 4.58333 9.58333H5.41667C5.53146 9.58333 5.625 9.49 5.625 9.375V8.43896C5.625 8.34271 5.69083 8.25917 5.78438 8.23646C6.11896 8.15542 6.43833 8.02333 6.73354 7.84271C6.81604 7.7925 6.92146 7.80521 6.98958 7.87313L7.65167 8.53542C7.72979 8.61333 7.86813 8.61375 7.94646 8.53542L8.53563 7.94604C8.61688 7.86479 8.61688 7.73271 8.53563 7.65146L7.87333 6.98917C7.80521 6.92125 7.79271 6.81521 7.84292 6.73313C8.02313 6.43854 8.15542 6.11917 8.23646 5.78396C8.25896 5.69042 8.34271 5.62438 8.43896 5.62438H9.375C9.43062 5.62438 9.48312 5.60271 9.5225 5.56333C9.56167 5.52458 9.58333 5.47229 9.58333 5.41646V4.58313C9.58333 4.46813 9.48979 4.37479 9.375 4.37479H8.43896C8.34271 4.37479 8.25896 4.30896 8.23646 4.21521C8.15563 3.88042 8.02333 3.56104 7.84292 3.26604C7.79271 3.18396 7.80521 3.07833 7.87333 3.01L8.53563 2.34771C8.57438 2.30875 8.59667 2.25521 8.59667 2.20042C8.59667 2.14563 8.57438 2.09187 8.53563 2.05312L7.94625 1.46396C7.8675 1.38542 7.73021 1.38542 7.65146 1.46396L6.98917 2.12625C6.92125 2.19458 6.81563 2.20729 6.73313 2.15667C6.43875 1.97667 6.11958 1.84417 5.78438 1.76313C5.69104 1.74083 5.625 1.65729 5.625 1.56104V0.625C5.625 0.51 5.53146 0.416667 5.41667 0.416667H4.58333C4.46854 0.416667 4.375 0.51 4.375 0.625V1.56104C4.375 1.65729 4.30917 1.74083 4.21563 1.76354C3.88104 1.84438 3.56167 1.97667 3.26646 2.15708C3.18417 2.20729 3.07854 2.19479 3.01063 2.12667L2.34833 1.46438C2.26958 1.38583 2.13229 1.38583 2.05354 1.46438L1.46458 2.05354C1.38333 2.13479 1.38333 2.26688 1.46458 2.34812L2.12687 3.01042C2.195 3.07833 2.2075 3.18438 2.15729 3.26646C1.97687 3.56146 1.84458 3.88083 1.76375 4.21542C1.74125 4.30896 1.6575 4.375 1.56125 4.375H0.625C0.569375 4.375 0.516875 4.39667 0.4775 4.43604C0.438333 4.475 0.416667 4.52729 0.416667 4.58313V5.41646C0.416667 5.53146 0.510208 5.62479 0.625 5.62479H1.56104C1.65729 5.62479 1.74104 5.69063 1.76354 5.78438C1.84458 6.11938 1.97688 6.43875 2.15708 6.73333C2.20729 6.81542 2.19479 6.92104 2.12667 6.98938L1.46438 7.65188C1.42562 7.69083 1.40333 7.74438 1.40333 7.79917C1.40333 7.85396 1.42562 7.90771 1.46438 7.94646L2.05375 8.53563C2.13229 8.61417 2.26979 8.61417 2.34854 8.53563L3.01063 7.87333C3.05063 7.83292 3.10375 7.81208 3.15771 7.81208Z" fill="white"/>
<path d="M5.00008 7.08333C3.85133 7.08333 2.91675 6.14875 2.91675 5C2.91675 3.85125 3.85133 2.91667 5.00008 2.91667C6.14883 2.91667 7.08342 3.85125 7.08342 5C7.08342 6.14875 6.14904 7.08333 5.00008 7.08333ZM5.00008 3.33333C4.08112 3.33333 3.33341 4.08104 3.33341 5C3.33341 5.91896 4.08112 6.66667 5.00008 6.66667C5.91904 6.66667 6.66675 5.91896 6.66675 5C6.66675 4.08104 5.91925 3.33333 5.00008 3.33333Z" fill="white"/>
</g>
<defs>
<clipPath id="clip0_48_53">
<rect width="10" height="10" fill="white"/>
</clipPath>
</defs>
</svg>
