<svg width="31" height="34" viewBox="0 0 31 34" fill="none" xmlns="http://www.w3.org/2000/svg">
<path d="M30.0256 11.976L16.1632 0.314313C15.664 -0.104771 14.9365 -0.104771 14.4379 0.314313L0.477386 12.0587C0.0464394 12.4212 -0.111644 13.0143 0.0811404 13.5432C0.274221 14.072 0.776943 14.4243 1.34017 14.4243H3.37686V29.9921C3.37686 31.7681 4.81681 33.2078 6.5925 33.2078H11.1476V24.0977C11.1476 23.5063 11.6277 23.0261 12.2194 23.0261H18.3823C18.9743 23.0261 19.4539 23.5063 19.4539 24.0977V33.2081H24.0092C25.7849 33.2081 27.2246 31.7675 27.2246 29.9924V14.4243H29.261C29.2651 14.4246 29.2699 14.4243 29.2725 14.4243C30.0125 14.4243 30.6122 13.8246 30.6122 13.0843C30.6117 12.6234 30.3794 12.2165 30.0256 11.976Z" fill="white"/>
</svg>
