<svg width="16" height="16" viewBox="0 0 16 16" fill="none" xmlns="http://www.w3.org/2000/svg">
<g clip-path="url(#clip0_42_492)">
<path d="M12.2331 3.36667C11.7998 3.36667 11.4331 3.73334 11.4331 4.16667V15.0333C11.4331 15.4667 11.7998 15.8333 12.2331 15.8333C12.6664 15.8333 13.0331 15.4667 13.0331 15.0333V4.16667C13.0331 3.73334 12.6664 3.36667 12.2331 3.36667Z" fill="white"/>
<path d="M15.0334 8.3C14.6001 8.3 14.2334 8.66667 14.2334 9.1V15.0333C14.2334 15.4667 14.6001 15.8333 15.0334 15.8333C15.4667 15.8333 15.8334 15.4667 15.8334 15.0333V9.1C15.8334 8.66667 15.4667 8.3 15.0334 8.3Z" fill="white"/>
<path d="M9.39961 0.166672C8.96628 0.166672 8.59961 0.533338 8.59961 0.966672V15.0333C8.59961 15.4667 8.96628 15.8333 9.39961 15.8333C9.83294 15.8333 10.1996 15.4667 10.1996 15.0333V0.966672C10.1996 0.533338 9.83294 0.166672 9.39961 0.166672Z" fill="white"/>
<path d="M6.5998 4.96667C6.16647 4.96667 5.7998 5.33334 5.7998 5.76667V15.0333C5.7998 15.4667 6.16647 15.8333 6.5998 15.8333C7.03314 15.8333 7.39981 15.4667 7.39981 15.0333V5.76667C7.39981 5.33334 7.03314 4.96667 6.5998 4.96667Z" fill="white"/>
<path d="M3.76631 0.166672C3.33298 0.166672 2.96631 0.533338 2.96631 0.966672V15.0333C2.96631 15.4667 3.33298 15.8333 3.76631 15.8333C4.19964 15.8333 4.56631 15.4667 4.56631 15.0333V0.966672C4.56631 0.533338 4.23298 0.166672 3.76631 0.166672Z" fill="white"/>
<path d="M0.966504 10.7333C0.533171 10.7333 0.166504 11.1 0.166504 11.5333V15.0667C0.166504 15.5 0.533171 15.8667 0.966504 15.8667C1.39984 15.8667 1.7665 15.5 1.7665 15.0667V11.5333C1.7665 11.0667 1.39984 10.7333 0.966504 10.7333Z" fill="white"/>
</g>
<defs>
<clipPath id="clip0_42_492">
<rect width="16" height="16" fill="white"/>
</clipPath>
</defs>
</svg>
