<svg width="16" height="16" viewBox="0 0 16 16" fill="none" xmlns="http://www.w3.org/2000/svg">
<g clip-path="url(#clip0_42_487)">
<path d="M4 0.666667C4 0.298667 3.70133 0 3.33333 0C2.96533 0 2.66667 0.298667 2.66667 0.666667V1.33333H4V0.666667ZM13.3333 0.666667C13.3333 0.298667 13.0347 0 12.6667 0C12.2987 0 12 0.298667 12 0.666667V1.33333H13.3333V0.666667ZM0 14.6667C0 15.4033 0.596667 16 1.33333 16H14.6667C15.4033 16 16 15.4033 16 14.6667V5.33333H0V14.6667ZM10.6667 7.33333C10.6667 6.96533 10.9653 6.66667 11.3333 6.66667H12.6667C13.0347 6.66667 13.3333 6.96533 13.3333 7.33333V8.66667C13.3333 9.03467 13.0347 9.33333 12.6667 9.33333H11.3333C10.9653 9.33333 10.6667 9.03467 10.6667 8.66667V7.33333ZM10.6667 11.3333C10.6667 10.9653 10.9653 10.6667 11.3333 10.6667H12.6667C13.0347 10.6667 13.3333 10.9653 13.3333 11.3333V12.6667C13.3333 13.0347 13.0347 13.3333 12.6667 13.3333H11.3333C10.9653 13.3333 10.6667 13.0347 10.6667 12.6667V11.3333ZM6.66667 7.33333C6.66667 6.96533 6.96533 6.66667 7.33333 6.66667H8.66667C9.03467 6.66667 9.33333 6.96533 9.33333 7.33333V8.66667C9.33333 9.03467 9.03467 9.33333 8.66667 9.33333H7.33333C6.96533 9.33333 6.66667 9.03467 6.66667 8.66667V7.33333ZM6.66667 11.3333C6.66667 10.9653 6.96533 10.6667 7.33333 10.6667H8.66667C9.03467 10.6667 9.33333 10.9653 9.33333 11.3333V12.6667C9.33333 13.0347 9.03467 13.3333 8.66667 13.3333H7.33333C6.96533 13.3333 6.66667 13.0347 6.66667 12.6667V11.3333ZM2.66667 11.3333C2.66667 10.9653 2.96533 10.6667 3.33333 10.6667H4.66667C5.03467 10.6667 5.33333 10.9653 5.33333 11.3333V12.6667C5.33333 13.0347 5.03467 13.3333 4.66667 13.3333H3.33333C2.96533 13.3333 2.66667 13.0347 2.66667 12.6667V11.3333ZM14.6667 1.33333H13.3333V2C13.3333 2.368 13.0347 2.66667 12.6667 2.66667C12.2987 2.66667 12 2.368 12 2V1.33333H4V2C4 2.368 3.70133 2.66667 3.33333 2.66667C2.96533 2.66667 2.66667 2.368 2.66667 2V1.33333H1.33333C0.596667 1.33333 0 1.93 0 2.66667V4H16V2.66667C16 1.93 15.4033 1.33333 14.6667 1.33333Z" fill="white"/>
</g>
<defs>
<clipPath id="clip0_42_487">
<rect width="16" height="16" fill="white"/>
</clipPath>
</defs>
</svg>
