<svg width="534" height="120" viewBox="0 0 534 120" fill="none" xmlns="http://www.w3.org/2000/svg">
<path d="M43.5935 69.232C45.5775 69.232 46.9855 69.776 47.8175 70.864C48.6495 71.888 49.0655 72.976 49.0655 74.128C49.0655 75.728 48.2655 77.424 46.6655 79.216C45.0655 81.008 42.9855 82.672 40.4255 84.208C37.9295 85.68 35.2415 86.896 32.3615 87.856C29.4815 88.816 26.7295 89.296 24.1055 89.296C20.2015 89.296 16.4575 88.24 12.8735 86.128C9.35354 83.952 6.47354 80.912 4.23354 77.008C2.05754 73.104 0.969538 68.464 0.969538 63.088C0.969538 58.672 1.80154 54.288 3.46554 49.936C5.19354 45.584 7.46554 41.392 10.2815 37.36C13.1615 33.328 16.2975 29.584 19.6895 26.128C23.1455 22.672 26.6015 19.664 30.0575 17.104C33.5775 14.544 36.8095 12.56 39.7535 11.152C42.6975 9.67998 45.0655 8.94398 46.8575 8.94398C49.0975 8.94398 50.7615 9.51998 51.8495 10.672C53.0015 11.76 53.5775 13.296 53.5775 15.28C53.5775 16.88 53.2575 18.128 52.6175 19.024C52.0415 19.856 51.1135 20.592 49.8335 21.232C45.7375 23.344 41.5775 25.904 37.3535 28.912C33.1935 31.92 29.3855 35.248 25.9295 38.896C22.4735 42.48 19.6895 46.256 17.5775 50.224C15.4655 54.192 14.4095 58.224 14.4095 62.32C14.4095 66.8 15.3055 70.192 17.0975 72.496C18.8895 74.8 21.3215 75.952 24.3935 75.952C25.9295 75.952 27.5935 75.632 29.3855 74.992C31.1775 74.288 32.9375 73.488 34.6655 72.592C36.4575 71.696 38.1215 70.928 39.6575 70.288C41.2575 69.584 42.5695 69.232 43.5935 69.232ZM68.639 90.64C67.039 90.64 65.663 90.064 64.511 88.912C63.423 87.76 62.879 86.096 62.879 83.92C62.879 82.96 63.007 81.392 63.263 79.216C63.583 76.976 63.967 74.416 64.415 71.536C64.927 68.656 65.407 65.648 65.855 62.512C66.367 59.376 66.783 56.4 67.103 53.584C67.487 50.768 67.743 48.368 67.871 46.384C67.999 43.952 68.639 42.224 69.791 41.2C70.943 40.112 72.319 39.568 73.919 39.568C75.199 39.568 76.351 39.888 77.375 40.528C78.463 41.104 79.135 42.352 79.391 44.272C79.711 46.128 79.743 48.816 79.487 52.336C82.303 47.216 85.151 42.64 88.031 38.608C90.975 34.576 94.047 31.376 97.247 29.008C102.559 24.976 107.359 22.96 111.647 22.96C114.079 22.96 115.679 23.504 116.447 24.592C117.215 25.68 117.599 26.8 117.599 27.952C117.599 28.72 117.407 29.424 117.023 30.064C116.703 30.704 115.999 31.376 114.911 32.08C113.823 32.784 112.159 33.712 109.919 34.864C106.911 36.4 103.935 38.416 100.991 40.912C98.111 43.408 95.231 46.608 92.351 50.512C89.471 54.416 86.559 59.216 83.615 64.912C80.671 70.608 77.631 77.392 74.495 85.264C73.919 87.44 73.087 88.88 71.999 89.584C70.975 90.288 69.855 90.64 68.639 90.64ZM125.001 89.68C121.033 89.68 117.833 88.304 115.401 85.552C112.969 82.736 111.753 78.224 111.753 72.016C111.753 68.048 112.201 64.08 113.097 60.112C114.057 56.08 115.369 52.272 117.033 48.688C118.761 45.04 120.745 41.808 122.985 38.992C125.289 36.176 127.817 33.968 130.569 32.368C133.321 30.704 136.169 29.872 139.113 29.872C144.105 29.872 148.009 31.216 150.825 33.904C153.641 36.592 155.049 40.016 155.049 44.176C155.049 47.376 154.153 50.288 152.361 52.912C150.633 55.472 148.265 57.776 145.257 59.824C142.249 61.872 138.889 63.728 135.177 65.392C131.465 67.056 127.657 68.56 123.753 69.904C123.433 72.208 123.273 74.256 123.273 76.048C123.273 77.136 123.881 77.68 125.097 77.68C127.977 77.68 131.049 77.232 134.313 76.336C137.641 75.376 141.001 74.16 144.393 72.688C147.785 71.152 151.049 69.584 154.185 67.984C157.321 66.32 160.169 64.752 162.729 63.28C165.353 61.744 167.497 60.528 169.161 59.632C170.889 58.672 172.009 58.192 172.521 58.192C173.929 58.192 174.953 58.608 175.593 59.44C176.233 60.272 176.553 61.168 176.553 62.128C176.553 62.576 175.689 63.568 173.961 65.104C172.297 66.64 169.993 68.464 167.049 70.576C164.169 72.624 160.905 74.768 157.257 77.008C153.673 79.184 149.929 81.264 146.025 83.248C142.185 85.168 138.441 86.704 134.793 87.856C131.209 89.072 127.945 89.68 125.001 89.68ZM125.385 61.36C128.009 59.824 130.601 58.224 133.161 56.56C135.785 54.832 137.961 52.912 139.689 50.8C141.417 48.624 142.281 46.096 142.281 43.216C142.281 42.384 142.057 41.84 141.609 41.584C141.161 41.264 140.521 41.104 139.689 41.104C137.449 41.104 135.401 42.096 133.545 44.08C131.753 46.064 130.153 48.624 128.745 51.76C127.401 54.832 126.281 58.032 125.385 61.36ZM175.457 90.064C173.409 90.064 171.553 89.488 169.889 88.336C168.225 87.248 166.913 85.808 165.953 84.016C164.993 82.16 164.513 80.176 164.513 78.064C164.513 74.096 165.377 70.224 167.105 66.448C168.897 62.672 171.233 59.088 174.113 55.696C176.993 52.304 180.129 49.2 183.521 46.384C186.977 43.504 190.401 41.04 193.793 38.992C197.249 36.944 200.385 35.344 203.201 34.192C206.081 33.04 208.321 32.464 209.921 32.464C211.777 32.464 213.281 32.88 214.433 33.712C215.649 34.48 216.257 35.696 216.257 37.36C216.257 37.872 216.129 38.288 215.873 38.608C216.705 38.8 217.377 39.28 217.889 40.048C218.401 40.816 218.657 41.968 218.657 43.504C218.657 44.144 218.497 45.808 218.177 48.496C217.857 51.184 217.505 54.448 217.121 58.288C216.801 62.128 216.641 66.128 216.641 70.288C216.641 70.928 216.737 71.504 216.929 72.016C217.121 72.464 217.537 72.688 218.177 72.688C220.737 72.688 223.329 72.176 225.953 71.152C228.641 70.064 231.233 68.752 233.729 67.216C236.289 65.616 238.593 64.048 240.641 62.512C242.753 60.912 244.513 59.6 245.921 58.576C247.393 57.488 248.353 56.944 248.801 56.944C250.977 56.944 252.065 58.032 252.065 60.208C252.065 60.784 251.361 62 249.953 63.856C248.609 65.648 246.753 67.728 244.385 70.096C242.017 72.4 239.361 74.704 236.417 77.008C233.537 79.248 230.529 81.104 227.393 82.576C224.321 84.048 221.345 84.784 218.465 84.784C214.945 84.784 212.257 83.952 210.401 82.288C208.609 80.624 207.329 78.384 206.561 75.568C205.857 72.688 205.473 69.456 205.409 65.872C202.145 70.544 198.753 74.704 195.233 78.352C191.777 81.936 188.353 84.784 184.961 86.896C181.569 89.008 178.401 90.064 175.457 90.064ZM209.441 41.968C203.169 44.976 197.537 48.432 192.545 52.336C187.553 56.176 183.585 60.208 180.641 64.432C177.761 68.656 176.321 72.72 176.321 76.624C176.321 77.712 176.833 78.256 177.857 78.256C179.073 78.256 180.673 77.552 182.657 76.144C184.705 74.736 186.913 72.88 189.281 70.576C191.649 68.208 194.017 65.584 196.385 62.704C198.753 59.76 200.961 56.752 203.009 53.68C205.057 50.608 206.689 47.664 207.905 44.848C208.353 43.824 208.865 42.864 209.441 41.968ZM313.115 38.032C313.115 38.8 312.859 39.472 312.347 40.048C311.835 40.624 311.195 41.072 310.427 41.392C309.339 41.84 307.451 42.416 304.763 43.12C302.075 43.824 298.811 44.624 294.971 45.52C291.195 46.416 287.131 47.344 282.779 48.304C278.427 49.2 274.075 50.064 269.723 50.896C268.059 57.04 266.363 63.376 264.635 69.904C262.907 76.368 261.179 82.736 259.451 89.008C258.811 91.248 258.043 92.944 257.147 94.096C256.251 95.312 254.715 95.92 252.539 95.92C250.171 95.92 248.571 95.152 247.739 93.616C246.971 92.144 246.875 90.128 247.451 87.568C249.115 80.592 250.651 74.096 252.059 68.08C253.531 62.064 254.715 57.2 255.611 53.488C251.771 54.128 248.411 54.64 245.531 55.024C242.651 55.344 240.603 55.472 239.387 55.408C238.043 55.28 236.923 54.736 236.027 53.776C235.131 52.816 234.715 51.632 234.779 50.224C234.907 48.944 235.483 47.856 236.507 46.96C237.531 46 238.747 45.424 240.155 45.232C242.139 45.04 244.699 44.752 247.835 44.368C250.971 43.984 254.427 43.536 258.203 43.024C259.035 39.76 259.995 36.4 261.083 32.944C262.171 29.424 263.291 26.064 264.443 22.864C265.659 19.6 266.811 16.752 267.899 14.32C268.987 11.888 269.979 10.128 270.875 9.03998C271.579 8.20798 272.443 7.56798 273.467 7.11998C274.555 6.67198 275.611 6.44798 276.635 6.44798C277.979 6.44798 279.067 6.92798 279.899 7.88798C280.731 8.84798 281.147 9.96798 281.147 11.248C281.147 11.76 281.115 12.304 281.051 12.88C280.987 13.392 280.859 13.904 280.667 14.416C279.451 17.616 278.139 21.488 276.731 26.032C275.387 30.576 273.979 35.568 272.507 41.008C277.307 40.304 282.011 39.6 286.619 38.896C291.291 38.128 295.515 37.424 299.291 36.784C303.131 36.08 306.203 35.472 308.507 34.96C309.787 34.512 310.875 34.608 311.771 35.248C312.667 35.824 313.115 36.752 313.115 38.032ZM301.55 86.856C299.758 86.856 298.158 86.248 296.75 85.032C295.406 83.816 294.734 81.832 294.734 79.08C294.734 77.608 294.926 75.528 295.31 72.84C295.758 70.152 296.334 67.24 297.038 64.104C297.742 60.904 298.51 57.736 299.342 54.6C300.238 51.464 301.102 48.68 301.934 46.248C302.766 43.752 303.502 41.896 304.142 40.68C304.974 39.208 305.742 38.312 306.446 37.992C307.214 37.608 307.95 37.416 308.654 37.416C309.934 37.416 311.118 37.8 312.206 38.568C313.358 39.336 313.934 41.032 313.934 43.656C313.934 44.68 313.742 46.344 313.358 48.648C312.974 50.888 312.494 53.512 311.918 56.52C311.342 59.528 310.702 62.632 309.998 65.832C309.358 69.032 308.718 72.072 308.078 74.952C307.502 77.768 307.022 80.136 306.638 82.056C306.318 83.656 305.646 84.84 304.622 85.608C303.662 86.44 302.638 86.856 301.55 86.856ZM312.59 27.912C310.478 27.912 308.526 27.304 306.734 26.088C304.942 24.808 304.046 22.856 304.046 20.232C304.046 18.056 304.59 16.296 305.678 14.952C306.766 13.608 308.046 12.648 309.518 12.072C311.054 11.432 312.398 11.112 313.55 11.112C314.702 11.112 315.982 11.368 317.39 11.88C318.798 12.328 320.014 13.192 321.038 14.472C322.126 15.688 322.67 17.448 322.67 19.752C322.67 21.288 322.126 22.696 321.038 23.976C319.95 25.192 318.606 26.152 317.006 26.856C315.47 27.56 313.998 27.912 312.59 27.912ZM341.351 86.32C339.687 86.32 338.215 85.52 336.935 83.92C335.719 82.32 334.791 79.856 334.151 76.528C333.639 73.712 333.191 70.512 332.807 66.928C332.423 63.344 332.071 59.824 331.751 56.368C331.495 52.848 331.303 49.776 331.175 47.152C331.047 44.528 330.983 42.736 330.983 41.776C330.983 38.32 331.591 35.472 332.807 33.232C334.023 30.928 336.359 29.776 339.815 29.776C341.287 29.776 342.407 30.416 343.175 31.696C343.943 32.912 344.327 34.608 344.327 36.784C344.327 38.128 344.327 39.824 344.327 41.872C344.391 43.856 344.455 46.096 344.519 48.592C344.583 51.344 344.647 54.32 344.711 57.52C344.839 60.656 344.903 63.792 344.903 66.928C347.143 63.408 349.543 59.664 352.103 55.696C354.663 51.664 357.159 47.76 359.591 43.984C362.087 40.208 364.327 36.88 366.311 34C368.295 31.056 369.799 28.976 370.823 27.76C371.719 26.672 372.807 25.744 374.087 24.976C375.367 24.144 376.711 23.728 378.119 23.728C379.655 23.728 380.935 24.336 381.959 25.552C382.983 26.768 383.495 28.176 383.495 29.776C383.495 30.992 383.239 32.144 382.727 33.232C382.279 34.32 381.703 35.344 380.999 36.304C379.079 38.992 376.807 42.128 374.183 45.712C371.623 49.296 368.935 53.072 366.119 57.04C363.303 60.944 360.551 64.72 357.863 68.368C355.239 72.016 352.903 75.248 350.855 78.064C349.191 80.432 347.847 82.224 346.823 83.44C345.799 84.592 344.871 85.36 344.039 85.744C343.271 86.128 342.375 86.32 341.351 86.32ZM408.765 90.64C405.245 90.64 402.109 89.68 399.357 87.76C396.605 85.904 394.429 83.28 392.829 79.888C391.293 76.496 390.525 72.528 390.525 67.984C390.525 63.12 391.101 58.384 392.253 53.776C393.405 49.104 394.877 44.912 396.669 41.2C398.461 37.424 400.253 34.448 402.045 32.272C403.901 30.032 405.501 28.912 406.845 28.912C408.253 28.912 409.405 29.328 410.301 30.16C411.261 30.992 411.741 32.24 411.741 33.904C411.741 34.16 411.453 35.088 410.877 36.688C410.365 38.224 409.693 40.208 408.861 42.64C408.029 45.008 407.197 47.664 406.365 50.608C405.533 53.488 404.829 56.432 404.253 59.44C403.741 62.448 403.485 65.328 403.485 68.08C403.485 71.408 403.997 74.064 405.021 76.048C406.045 78.032 408.253 79.024 411.645 79.024C415.101 79.024 418.461 78.032 421.725 76.048C425.053 74.064 428.253 71.408 431.325 68.08C434.397 64.688 437.341 60.912 440.157 56.752C436.829 57.008 433.693 57.136 430.749 57.136C428.765 57.136 427.325 56.944 426.429 56.56C425.533 56.112 424.957 55.536 424.701 54.832C424.509 54.128 424.413 53.296 424.413 52.336C424.413 50.992 425.021 49.776 426.237 48.688C427.453 47.6 428.797 47.024 430.269 46.96C433.021 46.768 435.805 46.544 438.621 46.288C441.501 46.032 444.349 45.744 447.165 45.424C449.277 41.648 451.229 37.904 453.021 34.192C454.877 30.416 456.573 26.864 458.109 23.536C459.581 19.376 461.149 15.536 462.813 12.016C464.541 8.43198 466.205 5.55198 467.805 3.37598C469.405 1.19998 470.909 0.11198 472.317 0.11198C473.981 0.11198 475.229 0.55998 476.061 1.45598C476.957 2.35198 477.405 3.53598 477.405 5.00798C477.405 5.45598 477.085 6.76798 476.445 8.94398C475.805 11.12 474.909 13.936 473.757 17.392C472.669 20.848 471.421 24.752 470.013 29.104C468.669 33.392 467.229 37.936 465.693 42.736C471.773 41.712 477.309 40.72 482.301 39.76C487.357 38.8 491.485 38 494.685 37.36C497.885 36.72 499.805 36.4 500.445 36.4C501.725 36.4 502.781 37.008 503.613 38.224C504.445 39.376 504.861 40.496 504.861 41.584C504.861 42.224 503.677 43.056 501.309 44.08C499.005 45.104 495.837 46.224 491.805 47.44C487.837 48.592 483.293 49.776 478.173 50.992C473.117 52.144 467.805 53.168 462.237 54.064C460.701 59.12 459.229 64.08 457.821 68.944C456.477 73.744 455.325 78.192 454.365 82.288C453.917 84.08 453.181 85.456 452.157 86.416C451.197 87.312 449.885 87.76 448.221 87.76C446.493 87.76 445.213 87.344 444.381 86.512C443.549 85.744 443.133 84.336 443.133 82.288C443.133 82.096 443.325 81.04 443.709 79.12C444.157 77.136 444.701 74.704 445.341 71.824C446.045 68.88 446.717 65.872 447.357 62.8C443.581 68.048 439.581 72.784 435.357 77.008C431.133 81.232 426.781 84.56 422.301 86.992C417.821 89.424 413.309 90.64 408.765 90.64ZM409.053 22.288C406.941 22.288 405.213 21.648 403.869 20.368C402.525 19.024 401.853 17.456 401.853 15.664C401.853 13.488 402.653 11.632 404.253 10.096C405.917 8.55998 407.869 7.79198 410.109 7.79198C412.605 7.79198 414.493 8.46398 415.773 9.80798C417.117 11.152 417.789 12.944 417.789 15.184C417.789 16.784 416.957 18.384 415.293 19.984C413.629 21.52 411.549 22.288 409.053 22.288ZM499.438 119.816C495.854 119.816 492.59 119.592 489.646 119.144C486.702 118.76 483.822 118.12 481.006 117.224C478.19 116.328 475.15 115.144 471.886 113.672C470.542 113.032 469.422 112.36 468.526 111.656C467.63 110.952 467.182 109.896 467.182 108.488C467.182 106.44 467.822 104.872 469.102 103.784C470.318 102.76 472.014 102.248 474.19 102.248C475.342 102.248 476.814 102.632 478.606 103.4C480.398 104.232 482.446 105.16 484.75 106.184C487.118 107.272 489.742 108.2 492.622 108.968C495.502 109.8 498.606 110.216 501.934 110.216C505.326 110.216 508.494 108.808 511.438 105.992C514.382 103.176 516.75 99.208 518.542 94.088C520.398 89.032 521.326 83.048 521.326 76.136C521.326 74.536 521.294 72.808 521.23 70.952C521.166 69.032 521.102 67.016 521.038 64.904C518.734 69.256 516.238 73.32 513.55 77.096C510.862 80.872 508.078 83.944 505.198 86.312C502.382 88.616 499.534 89.768 496.654 89.768C493.134 89.768 490.574 88.936 488.974 87.272C487.438 85.544 486.67 82.824 486.67 79.112C486.67 75.976 486.894 72.552 487.342 68.84C487.854 65.064 488.526 61.256 489.358 57.416C490.19 53.576 491.15 49.928 492.238 46.472C493.39 42.952 494.606 39.912 495.886 37.352C496.846 35.496 498.318 34.568 500.302 34.568C501.582 34.568 502.862 35.176 504.142 36.392C505.486 37.608 506.158 39.24 506.158 41.288C506.158 42.44 505.87 44.104 505.294 46.28C504.718 48.456 504.014 50.92 503.182 53.672C502.414 56.36 501.614 59.208 500.782 62.216C499.95 65.16 499.246 68.072 498.67 70.952C498.094 73.768 497.806 76.328 497.806 78.632C497.806 78.888 497.998 79.016 498.382 79.016C499.15 79.016 500.174 78.376 501.454 77.096C502.798 75.752 504.27 74.024 505.87 71.912C507.534 69.736 509.198 67.368 510.862 64.808C512.59 62.184 514.254 59.592 515.854 57.032C517.454 54.472 518.894 52.136 520.174 50.024C519.982 49 519.854 48.104 519.79 47.336C519.79 46.504 519.79 45.8 519.79 45.224C519.79 42.6 520.238 40.424 521.134 38.696C522.094 36.968 523.95 36.104 526.702 36.104C528.494 36.104 529.87 36.776 530.83 38.12C531.79 39.4 532.27 41.224 532.27 43.592C532.27 44.616 532.11 45.8 531.79 47.144C531.47 48.424 530.83 50.472 529.87 53.288L530.926 50.312C531.502 56.072 531.982 61.192 532.366 65.672C532.814 70.152 533.038 74.6 533.038 79.016C533.038 87.336 531.63 94.536 528.814 100.616C526.062 106.76 522.158 111.496 517.102 114.824C512.11 118.152 506.222 119.816 499.438 119.816Z" fill="url(#paint0_linear_0_1)"/>
<path d="M112.908 114V79.0909H121.345V107.148H135.868V114H112.908ZM140.236 114V87.8182H148.571V114H140.236ZM144.412 84.767C143.241 84.767 142.236 84.3807 141.395 83.608C140.554 82.8239 140.134 81.8807 140.134 80.7784C140.134 79.6875 140.554 78.7557 141.395 77.983C142.236 77.1989 143.241 76.8068 144.412 76.8068C145.594 76.8068 146.599 77.1989 147.429 77.983C148.27 78.7557 148.69 79.6875 148.69 80.7784C148.69 81.8807 148.27 82.8239 147.429 83.608C146.599 84.3807 145.594 84.767 144.412 84.767ZM179.274 87.8182L170.291 114H160.746L151.78 87.8182H160.558L165.382 105.852H165.655L170.496 87.8182H179.274ZM193.865 114.494C191.126 114.494 188.763 113.955 186.774 112.875C184.797 111.784 183.274 110.233 182.206 108.222C181.149 106.199 180.621 103.795 180.621 101.011C180.621 98.3068 181.155 95.9432 182.223 93.9205C183.291 91.8864 184.797 90.3068 186.74 89.1818C188.683 88.0455 190.973 87.4773 193.609 87.4773C195.473 87.4773 197.178 87.767 198.723 88.3466C200.268 88.9261 201.604 89.7841 202.729 90.9205C203.854 92.0568 204.729 93.4602 205.354 95.1307C205.979 96.7898 206.291 98.6932 206.291 100.841V102.92H183.536V98.0795H198.536C198.524 97.1932 198.314 96.4034 197.905 95.7102C197.496 95.017 196.933 94.4773 196.217 94.0909C195.513 93.6932 194.7 93.4943 193.78 93.4943C192.848 93.4943 192.013 93.7045 191.274 94.125C190.536 94.5341 189.95 95.0966 189.518 95.8125C189.087 96.517 188.859 97.3182 188.837 98.2159V103.142C188.837 104.21 189.047 105.148 189.467 105.955C189.888 106.75 190.484 107.369 191.257 107.812C192.03 108.256 192.95 108.477 194.018 108.477C194.757 108.477 195.428 108.375 196.03 108.17C196.632 107.966 197.149 107.665 197.581 107.267C198.013 106.869 198.337 106.381 198.553 105.801L206.206 106.023C205.888 107.739 205.189 109.233 204.109 110.506C203.041 111.767 201.638 112.75 199.899 113.455C198.161 114.148 196.149 114.494 193.865 114.494ZM233.406 95.8125L225.753 96.017C225.673 95.4716 225.457 94.9886 225.105 94.5682C224.753 94.1364 224.293 93.8011 223.724 93.5625C223.168 93.3125 222.52 93.1875 221.781 93.1875C220.815 93.1875 219.991 93.3807 219.31 93.767C218.639 94.1534 218.31 94.6761 218.321 95.3352C218.31 95.8466 218.514 96.2898 218.935 96.6648C219.366 97.0398 220.134 97.3409 221.236 97.5682L226.281 98.5227C228.895 99.0227 230.838 99.8523 232.111 101.011C233.395 102.17 234.043 103.705 234.054 105.614C234.043 107.409 233.509 108.972 232.452 110.301C231.406 111.631 229.974 112.665 228.156 113.403C226.338 114.131 224.259 114.494 221.918 114.494C218.179 114.494 215.23 113.727 213.071 112.193C210.923 110.648 209.696 108.58 209.389 105.989L217.622 105.784C217.804 106.739 218.276 107.466 219.037 107.966C219.798 108.466 220.77 108.716 221.952 108.716C223.02 108.716 223.889 108.517 224.56 108.119C225.23 107.722 225.571 107.193 225.582 106.534C225.571 105.943 225.31 105.472 224.798 105.119C224.287 104.756 223.486 104.472 222.395 104.267L217.827 103.398C215.202 102.92 213.247 102.04 211.963 100.756C210.679 99.4602 210.043 97.8125 210.054 95.8125C210.043 94.0625 210.509 92.5682 211.452 91.3295C212.395 90.0795 213.736 89.125 215.474 88.4659C217.213 87.8068 219.264 87.4773 221.628 87.4773C225.173 87.4773 227.969 88.2216 230.014 89.7102C232.06 91.1875 233.19 93.2216 233.406 95.8125ZM248.47 114V79.0909H256.908V93.1023H270.663V79.0909H279.084V114H270.663V99.9716H256.908V114H248.47ZM296.615 114.494C293.876 114.494 291.513 113.955 289.524 112.875C287.547 111.784 286.024 110.233 284.956 108.222C283.899 106.199 283.371 103.795 283.371 101.011C283.371 98.3068 283.905 95.9432 284.973 93.9205C286.041 91.8864 287.547 90.3068 289.49 89.1818C291.433 88.0455 293.723 87.4773 296.359 87.4773C298.223 87.4773 299.928 87.767 301.473 88.3466C303.018 88.9261 304.354 89.7841 305.479 90.9205C306.604 92.0568 307.479 93.4602 308.104 95.1307C308.729 96.7898 309.041 98.6932 309.041 100.841V102.92H286.286V98.0795H301.286C301.274 97.1932 301.064 96.4034 300.655 95.7102C300.246 95.017 299.683 94.4773 298.967 94.0909C298.263 93.6932 297.45 93.4943 296.53 93.4943C295.598 93.4943 294.763 93.7045 294.024 94.125C293.286 94.5341 292.7 95.0966 292.268 95.8125C291.837 96.517 291.609 97.3182 291.587 98.2159V103.142C291.587 104.21 291.797 105.148 292.217 105.955C292.638 106.75 293.234 107.369 294.007 107.812C294.78 108.256 295.7 108.477 296.768 108.477C297.507 108.477 298.178 108.375 298.78 108.17C299.382 107.966 299.899 107.665 300.331 107.267C300.763 106.869 301.087 106.381 301.303 105.801L308.956 106.023C308.638 107.739 307.939 109.233 306.859 110.506C305.791 111.767 304.388 112.75 302.649 113.455C300.911 114.148 298.899 114.494 296.615 114.494ZM313.298 114V87.8182H321.395V92.5909H321.668C322.145 90.8636 322.923 89.5795 324.003 88.7386C325.082 87.8864 326.338 87.4602 327.77 87.4602C328.156 87.4602 328.554 87.4886 328.963 87.5455C329.372 87.5909 329.753 87.6648 330.105 87.767V95.0114C329.707 94.875 329.185 94.767 328.537 94.6875C327.901 94.608 327.332 94.5682 326.832 94.5682C325.844 94.5682 324.952 94.7898 324.156 95.233C323.372 95.6648 322.753 96.2727 322.298 97.0568C321.855 97.8295 321.634 98.7386 321.634 99.7841V114H313.298ZM344.381 114.494C341.642 114.494 339.278 113.955 337.29 112.875C335.313 111.784 333.79 110.233 332.722 108.222C331.665 106.199 331.136 103.795 331.136 101.011C331.136 98.3068 331.67 95.9432 332.739 93.9205C333.807 91.8864 335.312 90.3068 337.256 89.1818C339.199 88.0455 341.489 87.4773 344.125 87.4773C345.989 87.4773 347.693 87.767 349.239 88.3466C350.784 88.9261 352.119 89.7841 353.244 90.9205C354.369 92.0568 355.244 93.4602 355.869 95.1307C356.494 96.7898 356.807 98.6932 356.807 100.841V102.92H334.051V98.0795H349.051C349.04 97.1932 348.83 96.4034 348.42 95.7102C348.011 95.017 347.449 94.4773 346.733 94.0909C346.028 93.6932 345.216 93.4943 344.295 93.4943C343.364 93.4943 342.528 93.7045 341.79 94.125C341.051 94.5341 340.466 95.0966 340.034 95.8125C339.602 96.517 339.375 97.3182 339.352 98.2159V103.142C339.352 104.21 339.563 105.148 339.983 105.955C340.403 106.75 341 107.369 341.773 107.812C342.545 108.256 343.466 108.477 344.534 108.477C345.273 108.477 345.943 108.375 346.545 108.17C347.148 107.966 347.665 107.665 348.097 107.267C348.528 106.869 348.852 106.381 349.068 105.801L356.722 106.023C356.403 107.739 355.705 109.233 354.625 110.506C353.557 111.767 352.153 112.75 350.415 113.455C348.676 114.148 346.665 114.494 344.381 114.494ZM370.865 79.0909L370.081 103.312H363.075L362.291 79.0909H370.865ZM366.57 114.494C365.354 114.494 364.308 114.062 363.433 113.199C362.57 112.335 362.138 111.29 362.138 110.062C362.138 108.858 362.57 107.83 363.433 106.977C364.308 106.114 365.354 105.682 366.57 105.682C367.74 105.682 368.768 106.114 369.655 106.977C370.553 107.83 371.001 108.858 371.001 110.062C371.001 110.881 370.791 111.625 370.371 112.295C369.962 112.966 369.422 113.5 368.751 113.898C368.092 114.295 367.365 114.494 366.57 114.494Z" fill="white"/>
<defs>
<linearGradient id="paint0_linear_0_1" x1="29.5931" y1="71.6536" x2="526.202" y2="28.6177" gradientUnits="userSpaceOnUse">
<stop stop-color="#7538F9"/>
<stop offset="1" stop-color="#F80C5B"/>
</linearGradient>
</defs>
</svg>
