<svg width="534" height="121" viewBox="0 0 534 121" fill="none" xmlns="http://www.w3.org/2000/svg">
<path d="M43.5894 69.816C45.5734 69.816 46.9814 70.36 47.8134 71.448C48.6454 72.472 49.0614 73.56 49.0614 74.712C49.0614 76.312 48.2614 78.008 46.6614 79.8C45.0614 81.592 42.9814 83.256 40.4214 84.792C37.9254 86.264 35.2374 87.48 32.3574 88.44C29.4774 89.4 26.7254 89.88 24.1014 89.88C20.1974 89.88 16.4534 88.824 12.8694 86.712C9.34936 84.536 6.46936 81.496 4.22936 77.592C2.05336 73.688 0.965358 69.048 0.965358 63.672C0.965358 59.256 1.79736 54.872 3.46136 50.52C5.18936 46.168 7.46136 41.976 10.2774 37.944C13.1574 33.912 16.2934 30.168 19.6854 26.712C23.1414 23.256 26.5974 20.248 30.0534 17.688C33.5734 15.128 36.8054 13.144 39.7494 11.736C42.6934 10.264 45.0614 9.528 46.8534 9.528C49.0934 9.528 50.7574 10.104 51.8454 11.256C52.9974 12.344 53.5734 13.88 53.5734 15.864C53.5734 17.464 53.2534 18.712 52.6134 19.608C52.0374 20.44 51.1094 21.176 49.8294 21.816C45.7334 23.928 41.5734 26.488 37.3494 29.496C33.1894 32.504 29.3814 35.832 25.9254 39.48C22.4694 43.064 19.6854 46.84 17.5734 50.808C15.4614 54.776 14.4054 58.808 14.4054 62.904C14.4054 67.384 15.3014 70.776 17.0934 73.08C18.8854 75.384 21.3174 76.536 24.3894 76.536C25.9254 76.536 27.5894 76.216 29.3814 75.576C31.1734 74.872 32.9334 74.072 34.6614 73.176C36.4534 72.28 38.1174 71.512 39.6534 70.872C41.2534 70.168 42.5654 69.816 43.5894 69.816ZM68.6349 91.224C67.0349 91.224 65.6589 90.648 64.5069 89.496C63.4189 88.344 62.8749 86.68 62.8749 84.504C62.8749 83.544 63.0029 81.976 63.2589 79.8C63.5789 77.56 63.9629 75 64.4109 72.12C64.9229 69.24 65.4029 66.232 65.8509 63.096C66.3629 59.96 66.7789 56.984 67.0989 54.168C67.4829 51.352 67.7389 48.952 67.8669 46.968C67.9949 44.536 68.6349 42.808 69.7869 41.784C70.9389 40.696 72.3149 40.152 73.9149 40.152C75.1949 40.152 76.3469 40.472 77.3709 41.112C78.4589 41.688 79.1309 42.936 79.3869 44.856C79.7069 46.712 79.7389 49.4 79.4829 52.92C82.2989 47.8 85.1469 43.224 88.0269 39.192C90.9709 35.16 94.0429 31.96 97.2429 29.592C102.555 25.56 107.355 23.544 111.643 23.544C114.075 23.544 115.675 24.088 116.443 25.176C117.211 26.264 117.595 27.384 117.595 28.536C117.595 29.304 117.403 30.008 117.019 30.648C116.699 31.288 115.995 31.96 114.907 32.664C113.819 33.368 112.155 34.296 109.915 35.448C106.907 36.984 103.931 39 100.987 41.496C98.1069 43.992 95.2269 47.192 92.3469 51.096C89.4669 55 86.5549 59.8 83.6109 65.496C80.6669 71.192 77.6269 77.976 74.4909 85.848C73.9149 88.024 73.0829 89.464 71.9949 90.168C70.9709 90.872 69.8509 91.224 68.6349 91.224ZM124.997 90.264C121.029 90.264 117.829 88.888 115.397 86.136C112.965 83.32 111.749 78.808 111.749 72.6C111.749 68.632 112.197 64.664 113.093 60.696C114.053 56.664 115.365 52.856 117.029 49.272C118.757 45.624 120.741 42.392 122.981 39.576C125.285 36.76 127.813 34.552 130.565 32.952C133.317 31.288 136.165 30.456 139.109 30.456C144.101 30.456 148.005 31.8 150.821 34.488C153.637 37.176 155.045 40.6 155.045 44.76C155.045 47.96 154.149 50.872 152.357 53.496C150.629 56.056 148.261 58.36 145.253 60.408C142.245 62.456 138.885 64.312 135.173 65.976C131.461 67.64 127.653 69.144 123.749 70.488C123.429 72.792 123.269 74.84 123.269 76.632C123.269 77.72 123.877 78.264 125.093 78.264C127.973 78.264 131.045 77.816 134.309 76.92C137.637 75.96 140.997 74.744 144.389 73.272C147.781 71.736 151.045 70.168 154.181 68.568C157.317 66.904 160.165 65.336 162.725 63.864C165.349 62.328 167.493 61.112 169.157 60.216C170.885 59.256 172.005 58.776 172.517 58.776C173.925 58.776 174.949 59.192 175.589 60.024C176.229 60.856 176.549 61.752 176.549 62.712C176.549 63.16 175.685 64.152 173.957 65.688C172.293 67.224 169.989 69.048 167.045 71.16C164.165 73.208 160.901 75.352 157.253 77.592C153.669 79.768 149.925 81.848 146.021 83.832C142.181 85.752 138.437 87.288 134.789 88.44C131.205 89.656 127.941 90.264 124.997 90.264ZM125.381 61.944C128.005 60.408 130.597 58.808 133.157 57.144C135.781 55.416 137.957 53.496 139.685 51.384C141.413 49.208 142.277 46.68 142.277 43.8C142.277 42.968 142.053 42.424 141.605 42.168C141.157 41.848 140.517 41.688 139.685 41.688C137.445 41.688 135.397 42.68 133.541 44.664C131.749 46.648 130.149 49.208 128.741 52.344C127.397 55.416 126.277 58.616 125.381 61.944ZM175.453 90.648C173.405 90.648 171.549 90.072 169.885 88.92C168.221 87.832 166.909 86.392 165.949 84.6C164.989 82.744 164.509 80.76 164.509 78.648C164.509 74.68 165.373 70.808 167.101 67.032C168.893 63.256 171.229 59.672 174.109 56.28C176.989 52.888 180.125 49.784 183.517 46.968C186.973 44.088 190.397 41.624 193.789 39.576C197.245 37.528 200.381 35.928 203.197 34.776C206.077 33.624 208.317 33.048 209.917 33.048C211.773 33.048 213.277 33.464 214.429 34.296C215.645 35.064 216.253 36.28 216.253 37.944C216.253 38.456 216.125 38.872 215.869 39.192C216.701 39.384 217.373 39.864 217.885 40.632C218.397 41.4 218.653 42.552 218.653 44.088C218.653 44.728 218.493 46.392 218.173 49.08C217.853 51.768 217.501 55.032 217.117 58.872C216.797 62.712 216.637 66.712 216.637 70.872C216.637 71.512 216.733 72.088 216.925 72.6C217.117 73.048 217.533 73.272 218.173 73.272C220.733 73.272 223.325 72.76 225.949 71.736C228.637 70.648 231.229 69.336 233.725 67.8C236.285 66.2 238.589 64.632 240.637 63.096C242.749 61.496 244.509 60.184 245.917 59.16C247.389 58.072 248.349 57.528 248.797 57.528C250.973 57.528 252.061 58.616 252.061 60.792C252.061 61.368 251.357 62.584 249.949 64.44C248.605 66.232 246.749 68.312 244.381 70.68C242.013 72.984 239.357 75.288 236.413 77.592C233.533 79.832 230.525 81.688 227.389 83.16C224.317 84.632 221.341 85.368 218.461 85.368C214.941 85.368 212.253 84.536 210.397 82.872C208.605 81.208 207.325 78.968 206.557 76.152C205.853 73.272 205.469 70.04 205.405 66.456C202.141 71.128 198.749 75.288 195.229 78.936C191.773 82.52 188.349 85.368 184.957 87.48C181.565 89.592 178.397 90.648 175.453 90.648ZM209.437 42.552C203.165 45.56 197.533 49.016 192.541 52.92C187.549 56.76 183.581 60.792 180.637 65.016C177.757 69.24 176.317 73.304 176.317 77.208C176.317 78.296 176.829 78.84 177.853 78.84C179.069 78.84 180.669 78.136 182.653 76.728C184.701 75.32 186.909 73.464 189.277 71.16C191.645 68.792 194.013 66.168 196.381 63.288C198.749 60.344 200.957 57.336 203.005 54.264C205.053 51.192 206.685 48.248 207.901 45.432C208.349 44.408 208.861 43.448 209.437 42.552ZM313.111 38.616C313.111 39.384 312.855 40.056 312.343 40.632C311.831 41.208 311.191 41.656 310.423 41.976C309.335 42.424 307.447 43 304.759 43.704C302.071 44.408 298.807 45.208 294.967 46.104C291.191 47 287.127 47.928 282.775 48.888C278.423 49.784 274.071 50.648 269.719 51.48C268.055 57.624 266.359 63.96 264.631 70.488C262.903 76.952 261.175 83.32 259.447 89.592C258.807 91.832 258.039 93.528 257.143 94.68C256.247 95.896 254.711 96.504 252.535 96.504C250.167 96.504 248.567 95.736 247.735 94.2C246.967 92.728 246.871 90.712 247.447 88.152C249.111 81.176 250.647 74.68 252.055 68.664C253.527 62.648 254.711 57.784 255.607 54.072C251.767 54.712 248.407 55.224 245.527 55.608C242.647 55.928 240.599 56.056 239.383 55.992C238.039 55.864 236.919 55.32 236.023 54.36C235.127 53.4 234.711 52.216 234.775 50.808C234.903 49.528 235.479 48.44 236.503 47.544C237.527 46.584 238.743 46.008 240.151 45.816C242.135 45.624 244.695 45.336 247.831 44.952C250.967 44.568 254.423 44.12 258.199 43.608C259.031 40.344 259.991 36.984 261.079 33.528C262.167 30.008 263.287 26.648 264.439 23.448C265.655 20.184 266.807 17.336 267.895 14.904C268.983 12.472 269.975 10.712 270.871 9.62399C271.575 8.79199 272.439 8.15199 273.463 7.704C274.551 7.25599 275.607 7.03199 276.631 7.03199C277.975 7.03199 279.063 7.512 279.895 8.472C280.727 9.432 281.143 10.552 281.143 11.832C281.143 12.344 281.111 12.888 281.047 13.464C280.983 13.976 280.855 14.488 280.663 15C279.447 18.2 278.135 22.072 276.727 26.616C275.383 31.16 273.975 36.152 272.503 41.592C277.303 40.888 282.007 40.184 286.615 39.48C291.287 38.712 295.511 38.008 299.287 37.368C303.127 36.664 306.199 36.056 308.503 35.544C309.783 35.096 310.871 35.192 311.767 35.832C312.663 36.408 313.111 37.336 313.111 38.616ZM301.546 87.44C299.754 87.44 298.154 86.832 296.746 85.616C295.402 84.4 294.73 82.416 294.73 79.664C294.73 78.192 294.922 76.112 295.306 73.424C295.754 70.736 296.33 67.824 297.034 64.688C297.738 61.488 298.506 58.32 299.338 55.184C300.234 52.048 301.098 49.264 301.93 46.832C302.762 44.336 303.498 42.48 304.138 41.264C304.97 39.792 305.738 38.896 306.442 38.576C307.21 38.192 307.946 38 308.65 38C309.93 38 311.114 38.384 312.202 39.152C313.354 39.92 313.93 41.616 313.93 44.24C313.93 45.264 313.738 46.928 313.354 49.232C312.97 51.472 312.49 54.096 311.914 57.104C311.338 60.112 310.698 63.216 309.994 66.416C309.354 69.616 308.714 72.656 308.074 75.536C307.498 78.352 307.018 80.72 306.634 82.64C306.314 84.24 305.642 85.424 304.618 86.192C303.658 87.024 302.634 87.44 301.546 87.44ZM312.586 28.496C310.474 28.496 308.522 27.888 306.73 26.672C304.938 25.392 304.042 23.44 304.042 20.816C304.042 18.64 304.586 16.88 305.674 15.536C306.762 14.192 308.042 13.232 309.514 12.656C311.05 12.016 312.394 11.696 313.546 11.696C314.698 11.696 315.978 11.952 317.386 12.464C318.794 12.912 320.01 13.776 321.034 15.056C322.122 16.272 322.666 18.032 322.666 20.336C322.666 21.872 322.122 23.28 321.034 24.56C319.946 25.776 318.602 26.736 317.002 27.44C315.466 28.144 313.994 28.496 312.586 28.496ZM341.347 86.904C339.683 86.904 338.211 86.104 336.931 84.504C335.715 82.904 334.787 80.44 334.147 77.112C333.635 74.296 333.187 71.096 332.803 67.512C332.419 63.928 332.067 60.408 331.747 56.952C331.491 53.432 331.299 50.36 331.171 47.736C331.043 45.112 330.979 43.32 330.979 42.36C330.979 38.904 331.587 36.056 332.803 33.816C334.019 31.512 336.355 30.36 339.811 30.36C341.283 30.36 342.403 31 343.171 32.28C343.939 33.496 344.323 35.192 344.323 37.368C344.323 38.712 344.323 40.408 344.323 42.456C344.387 44.44 344.451 46.68 344.515 49.176C344.579 51.928 344.643 54.904 344.707 58.104C344.835 61.24 344.899 64.376 344.899 67.512C347.139 63.992 349.539 60.248 352.099 56.28C354.659 52.248 357.155 48.344 359.587 44.568C362.083 40.792 364.323 37.464 366.307 34.584C368.291 31.64 369.795 29.56 370.819 28.344C371.715 27.256 372.803 26.328 374.083 25.56C375.363 24.728 376.707 24.312 378.115 24.312C379.651 24.312 380.931 24.92 381.955 26.136C382.979 27.352 383.491 28.76 383.491 30.36C383.491 31.576 383.235 32.728 382.723 33.816C382.275 34.904 381.699 35.928 380.995 36.888C379.075 39.576 376.803 42.712 374.179 46.296C371.619 49.88 368.931 53.656 366.115 57.624C363.299 61.528 360.547 65.304 357.859 68.952C355.235 72.6 352.899 75.832 350.851 78.648C349.187 81.016 347.843 82.808 346.819 84.024C345.795 85.176 344.867 85.944 344.035 86.328C343.267 86.712 342.371 86.904 341.347 86.904ZM408.761 91.224C405.241 91.224 402.105 90.264 399.353 88.344C396.601 86.488 394.425 83.864 392.825 80.472C391.289 77.08 390.521 73.112 390.521 68.568C390.521 63.704 391.097 58.968 392.249 54.36C393.401 49.688 394.873 45.496 396.665 41.784C398.457 38.008 400.249 35.032 402.041 32.856C403.897 30.616 405.497 29.496 406.841 29.496C408.249 29.496 409.401 29.912 410.297 30.744C411.257 31.576 411.737 32.824 411.737 34.488C411.737 34.744 411.449 35.672 410.873 37.272C410.361 38.808 409.689 40.792 408.857 43.224C408.025 45.592 407.193 48.248 406.361 51.192C405.529 54.072 404.825 57.016 404.249 60.024C403.737 63.032 403.481 65.912 403.481 68.664C403.481 71.992 403.993 74.648 405.017 76.632C406.041 78.616 408.249 79.608 411.641 79.608C415.097 79.608 418.457 78.616 421.721 76.632C425.049 74.648 428.249 71.992 431.321 68.664C434.393 65.272 437.337 61.496 440.153 57.336C436.825 57.592 433.689 57.72 430.745 57.72C428.761 57.72 427.321 57.528 426.425 57.144C425.529 56.696 424.953 56.12 424.697 55.416C424.505 54.712 424.409 53.88 424.409 52.92C424.409 51.576 425.017 50.36 426.233 49.272C427.449 48.184 428.793 47.608 430.265 47.544C433.017 47.352 435.801 47.128 438.617 46.872C441.497 46.616 444.345 46.328 447.161 46.008C449.273 42.232 451.225 38.488 453.017 34.776C454.873 31 456.569 27.448 458.105 24.12C459.577 19.96 461.145 16.12 462.809 12.6C464.537 9.016 466.201 6.136 467.801 3.95999C469.401 1.78399 470.905 0.695995 472.313 0.695995C473.977 0.695995 475.225 1.144 476.057 2.04C476.953 2.936 477.401 4.12 477.401 5.592C477.401 6.04 477.081 7.352 476.441 9.528C475.801 11.704 474.905 14.52 473.753 17.976C472.665 21.432 471.417 25.336 470.009 29.688C468.665 33.976 467.225 38.52 465.689 43.32C471.769 42.296 477.305 41.304 482.297 40.344C487.353 39.384 491.481 38.584 494.681 37.944C497.881 37.304 499.801 36.984 500.441 36.984C501.721 36.984 502.777 37.592 503.609 38.808C504.441 39.96 504.857 41.08 504.857 42.168C504.857 42.808 503.673 43.64 501.305 44.664C499.001 45.688 495.833 46.808 491.801 48.024C487.833 49.176 483.289 50.36 478.169 51.576C473.113 52.728 467.801 53.752 462.233 54.648C460.697 59.704 459.225 64.664 457.817 69.528C456.473 74.328 455.321 78.776 454.361 82.872C453.913 84.664 453.177 86.04 452.153 87C451.193 87.896 449.881 88.344 448.217 88.344C446.489 88.344 445.209 87.928 444.377 87.096C443.545 86.328 443.129 84.92 443.129 82.872C443.129 82.68 443.321 81.624 443.705 79.704C444.153 77.72 444.697 75.288 445.337 72.408C446.041 69.464 446.713 66.456 447.353 63.384C443.577 68.632 439.577 73.368 435.353 77.592C431.129 81.816 426.777 85.144 422.297 87.576C417.817 90.008 413.305 91.224 408.761 91.224ZM409.049 22.872C406.937 22.872 405.209 22.232 403.865 20.952C402.521 19.608 401.849 18.04 401.849 16.248C401.849 14.072 402.649 12.216 404.249 10.68C405.913 9.144 407.865 8.37599 410.105 8.37599C412.601 8.37599 414.489 9.04799 415.769 10.392C417.113 11.736 417.785 13.528 417.785 15.768C417.785 17.368 416.953 18.968 415.289 20.568C413.625 22.104 411.545 22.872 409.049 22.872ZM499.434 120.4C495.85 120.4 492.586 120.176 489.642 119.728C486.698 119.344 483.818 118.704 481.002 117.808C478.186 116.912 475.146 115.728 471.882 114.256C470.538 113.616 469.418 112.944 468.522 112.24C467.626 111.536 467.178 110.48 467.178 109.072C467.178 107.024 467.818 105.456 469.098 104.368C470.314 103.344 472.01 102.832 474.186 102.832C475.338 102.832 476.81 103.216 478.602 103.984C480.394 104.816 482.442 105.744 484.746 106.768C487.114 107.856 489.738 108.784 492.618 109.552C495.498 110.384 498.602 110.8 501.93 110.8C505.322 110.8 508.49 109.392 511.434 106.576C514.378 103.76 516.746 99.792 518.538 94.672C520.394 89.616 521.322 83.632 521.322 76.72C521.322 75.12 521.29 73.392 521.226 71.536C521.162 69.616 521.098 67.6 521.034 65.488C518.73 69.84 516.234 73.904 513.546 77.68C510.858 81.456 508.074 84.528 505.194 86.896C502.378 89.2 499.53 90.352 496.65 90.352C493.13 90.352 490.57 89.52 488.97 87.856C487.434 86.128 486.666 83.408 486.666 79.696C486.666 76.56 486.89 73.136 487.338 69.424C487.85 65.648 488.522 61.84 489.354 58C490.186 54.16 491.146 50.512 492.234 47.056C493.386 43.536 494.602 40.496 495.882 37.936C496.842 36.08 498.314 35.152 500.298 35.152C501.578 35.152 502.858 35.76 504.138 36.976C505.482 38.192 506.154 39.824 506.154 41.872C506.154 43.024 505.866 44.688 505.29 46.864C504.714 49.04 504.01 51.504 503.178 54.256C502.41 56.944 501.61 59.792 500.778 62.8C499.946 65.744 499.242 68.656 498.666 71.536C498.09 74.352 497.802 76.912 497.802 79.216C497.802 79.472 497.994 79.6 498.378 79.6C499.146 79.6 500.17 78.96 501.45 77.68C502.794 76.336 504.266 74.608 505.866 72.496C507.53 70.32 509.194 67.952 510.858 65.392C512.586 62.768 514.25 60.176 515.85 57.616C517.45 55.056 518.89 52.72 520.17 50.608C519.978 49.584 519.85 48.688 519.786 47.92C519.786 47.088 519.786 46.384 519.786 45.808C519.786 43.184 520.234 41.008 521.13 39.28C522.09 37.552 523.946 36.688 526.698 36.688C528.49 36.688 529.866 37.36 530.826 38.704C531.786 39.984 532.266 41.808 532.266 44.176C532.266 45.2 532.106 46.384 531.786 47.728C531.466 49.008 530.826 51.056 529.866 53.872L530.922 50.896C531.498 56.656 531.978 61.776 532.362 66.256C532.81 70.736 533.034 75.184 533.034 79.6C533.034 87.92 531.626 95.12 528.81 101.2C526.058 107.344 522.154 112.08 517.098 115.408C512.106 118.736 506.218 120.4 499.434 120.4Z" fill="url(#paint0_linear_1_78)"/>
<defs>
<linearGradient id="paint0_linear_1_78" x1="33.5944" y1="71.5702" x2="521.706" y2="28.5349" gradientUnits="userSpaceOnUse">
<stop stop-color="#7538F9"/>
<stop offset="1" stop-color="#F80C5B"/>
</linearGradient>
</defs>
</svg>
