<svg width="16" height="16" viewBox="0 0 16 16" fill="none" xmlns="http://www.w3.org/2000/svg">
<path d="M8 16C3.58879 16 0 12.4112 0 8C0 3.58879 3.58879 0 8 0C12.4112 0 16 3.58879 16 8C16 12.4112 12.4112 16 8 16ZM8 1.2641C4.28581 1.2641 1.2641 4.28581 1.2641 8C1.2641 11.7139 4.28581 14.7359 8 14.7359C11.7139 14.7359 14.7359 11.7142 14.7359 8C14.7359 4.28581 11.7142 1.2641 8 1.2641Z" fill="white"/>
<path d="M12.3137 7.31371H8.68629V3.68629C8.68629 3.30718 8.3791 3 8 3C7.6209 3 7.31371 3.30718 7.31371 3.68629V7.31371H3.68629C3.30718 7.31371 3 7.6209 3 8C3 8.3791 3.30718 8.68629 3.68629 8.68629H7.31371V12.3137C7.31371 12.6928 7.6209 13 8 13C8.3791 13 8.68629 12.6928 8.68629 12.3137V8.68629H12.3137C12.6928 8.68629 13 8.3791 13 8C13 7.6209 12.6928 7.31371 12.3137 7.31371Z" fill="white"/>
</svg>
