<svg width="21" height="21" viewBox="0 0 21 21" fill="none" xmlns="http://www.w3.org/2000/svg">
<path d="M4.27748 12.4574H4.25993V12.4988L1.19141 19.8159L14.6963 14.1524L6.85499 6.31102L4.27748 12.4574ZM8.93993 15.7205L7.37993 16.3746V7.93888L8.93993 9.49888V15.7205ZM9.71993 10.2789L11.2799 11.8389V14.7393L9.71993 15.3933V10.2789ZM6.59993 16.7018L5.03993 17.3558V12.6559L6.59993 8.93572V16.7018ZM4.25993 14.5158V17.683L2.64845 18.3589L4.25993 14.5158ZM12.0599 14.4121V12.6189L13.3235 13.8825L12.0599 14.4121Z" fill="white"/>
<path d="M11.28 4.26741C10.4196 4.26741 9.71997 4.96707 9.71997 5.82741C9.71997 6.68775 10.4196 7.38741 11.28 7.38741C12.1403 7.38741 12.84 6.68775 12.84 5.82741C12.84 4.96707 12.1403 4.26741 11.28 4.26741ZM11.28 6.60741C10.8498 6.60741 10.5 6.25758 10.5 5.82741C10.5 5.39724 10.8498 5.04741 11.28 5.04741C11.7101 5.04741 12.06 5.39724 12.06 5.82741C12.06 6.25758 11.7101 6.60741 11.28 6.60741Z" fill="white"/>
<path d="M18.3 1.14742C17.4397 1.14742 16.74 1.84708 16.74 2.70742C16.74 3.56776 17.4397 4.26742 18.3 4.26742C19.1603 4.26742 19.86 3.56776 19.86 2.70742C19.86 1.84708 19.1603 1.14742 18.3 1.14742ZM18.3 3.48742C17.8698 3.48742 17.52 3.13759 17.52 2.70742C17.52 2.27725 17.8698 1.92742 18.3 1.92742C18.7302 1.92742 19.08 2.27725 19.08 2.70742C19.08 3.13759 18.7302 3.48742 18.3 3.48742Z" fill="white"/>
<path d="M16.35 7.38742C15.4897 7.38742 14.79 8.08708 14.79 8.94742C14.79 9.80776 15.4897 10.5074 16.35 10.5074C17.2104 10.5074 17.91 9.80776 17.91 8.94742C17.91 8.08708 17.2104 7.38742 16.35 7.38742ZM16.35 9.72742C15.9199 9.72742 15.57 9.37759 15.57 8.94742C15.57 8.51725 15.9199 8.16742 16.35 8.16742C16.7802 8.16742 17.13 8.51725 17.13 8.94742C17.13 9.37759 16.7802 9.72742 16.35 9.72742Z" fill="white"/>
<path d="M14.7151 12.7203L15.2665 13.2717C16.3492 12.1891 18.1116 12.1891 19.1942 13.2717L19.7457 12.7203C18.3585 11.333 16.1019 11.333 14.7151 12.7203Z" fill="white"/>
<path d="M8.0456 6.49315C9.10991 5.42884 9.10991 3.69685 8.0456 2.63254L7.49414 3.184C8.25425 3.9445 8.25425 5.18158 7.49414 5.94169L8.0456 6.49315Z" fill="white"/>
<path d="M14.6757 6.39877C16.1179 4.95616 16.1179 2.60953 14.6757 1.16692L14.1243 1.71838C15.2623 2.85679 15.2623 4.7089 14.1243 5.84731L14.6757 6.39877Z" fill="white"/>
<path d="M12.4499 8.55742H11.6699V9.33742H12.4499V8.55742Z" fill="white"/>
<path d="M18.6899 5.43741H17.9099V6.21741H18.6899V5.43741Z" fill="white"/>
<path d="M10.8899 1.92741H10.1099V2.70741H10.8899V1.92741Z" fill="white"/>
</svg>
