<svg width="19" height="19" viewBox="0 0 19 19" fill="none" xmlns="http://www.w3.org/2000/svg">
<path d="M12.7598 11.6169V12.496V13.4147V16.0003C12.5294 15.8593 12.2597 15.7766 11.9696 15.7766C11.1319 15.7766 10.4524 16.4558 10.4524 17.2932C10.4524 18.1312 11.1316 18.8104 11.9696 18.8104C12.807 18.8104 13.4862 18.1312 13.4862 17.2935V13.2057L17.346 12.096V14.6911C17.1156 14.55 16.8459 14.467 16.5558 14.467C15.7178 14.467 15.0386 15.1462 15.0386 15.9833C15.0386 16.821 15.7178 17.5005 16.5558 17.5005C17.345 17.5005 17.9934 16.8965 18.0652 16.1257H18.0724V11.8873V11.236V10.0892L12.7598 11.6169Z" fill="white"/>
<path d="M9.12623 9.19439C9.56297 9.19439 9.91701 8.84034 9.91701 8.4036C9.91701 7.96687 9.56297 7.61282 9.12623 7.61282C8.68949 7.61282 8.33545 7.96687 8.33545 8.4036C8.33545 8.84034 8.68949 9.19439 9.12623 9.19439Z" fill="white"/>
<path d="M11.7755 13.4147V12.496V11.6169V10.8757L12.4878 10.671L17.2755 9.29447C17.3073 9.00178 17.3247 8.70483 17.3247 8.40394C17.3247 3.88303 13.6468 0.205078 9.12619 0.205078C4.60495 0.205078 0.927002 3.88303 0.927002 8.40394C0.927002 12.9248 4.60528 16.6028 9.12619 16.6028C9.27483 16.6028 9.42216 16.5982 9.56883 16.5903C9.85561 15.6122 10.7255 14.8805 11.7751 14.7994V13.4147H11.7755ZM1.97831 8.41903C1.97831 6.44897 2.77533 4.66495 4.06486 3.37181L6.11466 5.4098C5.34553 6.17958 4.86877 7.24139 4.86713 8.4128L1.97831 8.41903ZM9.12619 11.5946C7.36383 11.5946 5.93517 10.166 5.93517 8.40361C5.93517 6.64125 7.36383 5.21259 9.12619 5.21259C10.8885 5.21259 12.3172 6.64125 12.3172 8.40361C12.3172 10.166 10.8885 11.5946 9.12619 11.5946Z" fill="white"/>
</svg>
