<svg width="17" height="16" viewBox="0 0 17 16" fill="none" xmlns="http://www.w3.org/2000/svg">
<path d="M13.4439 2.11212C10.6453 -0.568576 6.38135 -0.754934 3.39792 1.88276C0.889717 4.09039 -0.100362 7.65988 0.863315 11L1.8666 10.656C1.03493 7.77456 1.893 4.67814 4.05797 2.78588C6.65858 0.492235 10.3681 0.664259 12.7839 3.01525H11.0677V4.16207H14.5V0.434894H13.4439V2.11212Z" fill="white"/>
<path d="M12.9066 13.2464C11.5208 14.4449 9.77529 15.0156 8.0031 14.8301C6.60401 14.6874 5.29819 14.1025 4.24554 13.1466H5.96442V12.0052H2.5V15.7147H3.56598V14.0169C4.77852 15.1154 6.28422 15.8003 7.90983 15.9572C8.163 15.9857 8.40284 16 8.64269 16C10.4415 16 12.1737 15.3437 13.5728 14.1167C16.1178 11.9196 17.1172 8.33852 16.1178 5L15.1052 5.34241C15.9579 8.25292 15.1052 11.3489 12.9066 13.2464Z" fill="white"/>
</svg>
