<svg width="27" height="26" viewBox="0 0 27 26" fill="none" xmlns="http://www.w3.org/2000/svg">
<path d="M25.5305 22.1642L19.6364 16.2698C20.6379 14.6755 21.2191 12.7911 21.2191 10.7688C21.2191 5.04739 16.581 0.409912 10.8598 0.409912C5.13867 0.409912 0.500977 5.04739 0.500977 10.7688C0.500977 16.4903 5.13846 21.1274 10.8598 21.1274C13.0606 21.1274 15.0991 20.4393 16.7765 19.2702L22.6004 25.0945C23.0051 25.4988 23.5356 25.7001 24.0654 25.7001C24.5959 25.7001 25.1258 25.4988 25.5311 25.0945C26.3398 24.285 26.3398 22.9736 25.5305 22.1642ZM10.8598 17.7713C6.99285 17.7713 3.85774 14.6364 3.85774 10.7692C3.85774 6.902 6.99285 3.76689 10.8598 3.76689C14.727 3.76689 17.8619 6.902 17.8619 10.7692C17.8619 14.6364 14.727 17.7713 10.8598 17.7713Z" fill="#A6A6A6"/>
</svg>
