<svg width="16" height="16" viewBox="0 0 16 16" fill="none" xmlns="http://www.w3.org/2000/svg">
<path d="M14.8171 5.55715C12.1465 1.45462 6.18219 0 6.18219 0C6.18219 0 7.93764 3.97603 3.32319 6.67945C0.406204 8.38844 -0.751645 10.6066 0.499175 13.0328C1.53024 15.0328 3.79342 15.7619 6.16284 15.9887C4.18664 15.0783 2.23927 11.8492 6.40367 8.81887C6.22441 9.29305 6.10006 10.133 6.18821 10.632C6.55163 12.7105 8.35299 12.396 9.26212 11.1178C9.86217 10.2749 9.85976 8.79545 9.8006 7.83224C9.77343 7.3969 9.57602 6.07474 9.51204 6.03911C9.5126 6.03939 12.0801 7.47268 12.3602 9.88996C12.6233 12.1605 11.6889 14.7291 8.63549 16C12.5111 15.6847 15.1238 13.268 15.757 11.1652C16.3094 9.32978 15.888 7.20273 14.8171 5.55715Z" fill="white"/>
</svg>
